<svg width="530" height="530" viewBox="0 0 530 530" fill="none" xmlns="http://www.w3.org/2000/svg">
<rect width="530" height="530" rx="57" fill="#F6F2FF"/>
<path fill-rule="evenodd" clip-rule="evenodd" d="M66 67V33H92V67H126V93H92V127H66V93H32V67H66ZM431.258 300.642C433.71 289.149 435 277.225 435 265C435 252.326 433.613 239.976 430.983 228.093L410.177 264.129L431.258 300.642ZM313.81 102.111C338.297 109.438 360.465 122.136 378.945 138.838H335.014L313.81 102.111ZM339.58 164.838L313.547 209.928L337.503 251.421H387.492L412.486 208.129L387.492 164.838H339.58ZM289.786 112.5L313.742 153.993L289.658 195.708H239.337L215.547 154.502L239.797 112.5H289.786ZM190.506 165.708L216.245 210.289L191.994 252.292L142.006 252.292L117.011 209L142.006 165.708H190.506ZM194.066 139.708L150.099 139.708C168.643 122.693 190.975 109.741 215.685 102.263L194.066 139.708ZM95 265C95 252.775 96.2904 240.851 98.7425 229.358L119.823 265.87L99.0173 301.907C96.3869 290.024 95 277.674 95 265ZM151.054 391.162C168.771 407.173 189.875 419.504 213.163 426.952L192.5 391.162H151.054ZM192.072 365.162H142.508L117.514 321.87L142.508 278.579H192.497L217.279 321.503L192.072 365.162ZM215.015 378.16L239.797 421.083H289.786L314.78 377.792L289.786 334.5H240.222L215.015 378.16ZM316.326 427.115L337.586 390.292H379.901C361.862 406.844 340.237 419.551 316.326 427.115ZM265 463C374.352 463 463 374.352 463 265C463 155.648 374.352 67 265 67C155.648 67 67 155.648 67 265C67 374.352 155.648 463 265 463ZM387.994 364.292H338.006L313.011 321L338.006 277.708H387.994L412.989 321L387.994 364.292Z" fill="url(#paint0_linear_1_122)"/>
<defs>
<linearGradient id="paint0_linear_1_122" x1="32" y1="528.5" x2="581.5" y2="-99.5" gradientUnits="userSpaceOnUse">
<stop stop-color="#3E00A4"/>
<stop offset="0.250856" stop-color="#6100FF"/>
<stop offset="0.499262" stop-color="#CF47FF"/>
<stop offset="1" stop-color="#E8A6FF"/>
</linearGradient>
</defs>
</svg>
