<svg width="2100" height="530" viewBox="0 0 2100 530" fill="none" xmlns="http://www.w3.org/2000/svg">
<path d="M665.45 242.75L661.6 165.05L766.95 52H843.25L738.25 165.75L699.75 206L665.45 242.75ZM603.5 297V52H672.1V297H603.5ZM768 297L688.2 195.85L733.35 147.55L848.5 297H768ZM863.534 297V107.3H930.034V297H863.534ZM896.784 86.3C884.65 86.3 874.85 82.9166 867.384 76.15C859.917 69.3833 856.184 60.9833 856.184 50.95C856.184 40.9167 859.917 32.5167 867.384 25.75C874.85 18.9833 884.65 15.6 896.784 15.6C908.917 15.6 918.717 18.8667 926.184 25.4C933.65 31.7 937.384 39.8667 937.384 49.9C937.384 60.4 933.65 69.15 926.184 76.15C918.95 82.9166 909.15 86.3 896.784 86.3ZM1070.2 300.15C1049.2 300.15 1030.42 295.95 1013.85 287.55C997.517 279.15 984.684 267.6 975.35 252.9C966.017 237.967 961.35 220.933 961.35 201.8C961.35 182.667 966.017 165.75 975.35 151.05C984.684 136.35 997.517 124.917 1013.85 116.75C1030.42 108.35 1049.2 104.15 1070.2 104.15C1091.67 104.15 1110.22 108.7 1125.85 117.8C1141.48 126.9 1152.57 139.733 1159.1 156.3L1107.65 182.55C1103.22 173.683 1097.73 167.267 1091.2 163.3C1084.67 159.1 1077.55 157 1069.85 157C1062.15 157 1055.15 158.75 1048.85 162.25C1042.55 165.75 1037.53 170.883 1033.8 177.65C1030.3 184.183 1028.55 192.233 1028.55 201.8C1028.55 211.6 1030.3 219.883 1033.8 226.65C1037.53 233.417 1042.55 238.55 1048.85 242.05C1055.15 245.55 1062.15 247.3 1069.85 247.3C1077.55 247.3 1084.67 245.317 1091.2 241.35C1097.73 237.15 1103.22 230.617 1107.65 221.75L1159.1 248C1152.57 264.567 1141.48 277.4 1125.85 286.5C1110.22 295.6 1091.67 300.15 1070.2 300.15ZM1238.76 262L1240.51 182.55L1317.86 107.3H1396.61L1310.86 195.85L1276.91 223.15L1238.76 262ZM1183.46 297V37.3H1249.96V297H1183.46ZM1322.76 297L1264.66 224.2L1305.96 173.1L1403.26 297H1322.76ZM1651.95 301.9C1632.35 301.9 1614.27 298.75 1597.7 292.45C1581.14 286.15 1566.67 277.283 1554.3 265.85C1542.17 254.183 1532.72 240.65 1525.95 225.25C1519.19 209.85 1515.8 192.933 1515.8 174.5C1515.8 156.067 1519.19 139.15 1525.95 123.75C1532.72 108.35 1542.17 94.9333 1554.3 83.5C1566.67 71.8333 1581.14 62.85 1597.7 56.55C1614.27 50.25 1632.35 47.1 1651.95 47.1C1671.79 47.1 1689.87 50.25 1706.2 56.55C1722.77 62.85 1737.12 71.8333 1749.25 83.5C1761.39 94.9333 1770.84 108.35 1777.6 123.75C1784.6 139.15 1788.1 156.067 1788.1 174.5C1788.1 192.933 1784.6 209.967 1777.6 225.6C1770.84 241 1761.39 254.417 1749.25 265.85C1737.12 277.283 1722.77 286.15 1706.2 292.45C1689.87 298.75 1671.79 301.9 1651.95 301.9ZM1651.95 244.5C1661.29 244.5 1669.92 242.867 1677.85 239.6C1686.02 236.333 1693.02 231.667 1698.85 225.6C1704.92 219.3 1709.59 211.833 1712.85 203.2C1716.35 194.567 1718.1 185 1718.1 174.5C1718.1 163.767 1716.35 154.2 1712.85 145.8C1709.59 137.167 1704.92 129.817 1698.85 123.75C1693.02 117.45 1686.02 112.667 1677.85 109.4C1669.92 106.133 1661.29 104.5 1651.95 104.5C1642.62 104.5 1633.87 106.133 1625.7 109.4C1617.77 112.667 1610.77 117.45 1604.7 123.75C1598.87 129.817 1594.2 137.167 1590.7 145.8C1587.44 154.2 1585.8 163.767 1585.8 174.5C1585.8 185 1587.44 194.567 1590.7 203.2C1594.2 211.833 1598.87 219.3 1604.7 225.6C1610.77 231.667 1617.77 236.333 1625.7 239.6C1633.87 242.867 1642.62 244.5 1651.95 244.5ZM1828.95 297V109.4C1828.95 86.5333 1835.72 68.3333 1849.25 54.8C1863.02 41.0333 1882.62 34.15 1908.05 34.15C1916.22 34.15 1924.27 34.9667 1932.2 36.6C1940.13 38.2333 1946.78 40.6833 1952.15 43.95L1935.7 90.85C1932.9 89.2167 1929.75 87.9333 1926.25 87C1922.75 85.8333 1919.25 85.25 1915.75 85.25C1908.75 85.25 1903.27 87.35 1899.3 91.55C1895.57 95.5167 1893.7 101.7 1893.7 110.1V123.75L1895.45 151.4V297H1828.95ZM1801.3 164V114.3H1938.85V164H1801.3ZM1975.92 297V109.4C1975.92 86.5333 1982.69 68.3333 1996.22 54.8C2009.99 41.0333 2029.59 34.15 2055.02 34.15C2063.19 34.15 2071.24 34.9667 2079.17 36.6C2087.1 38.2333 2093.75 40.6833 2099.12 43.95L2082.67 90.85C2079.87 89.2167 2076.72 87.9333 2073.22 87C2069.72 85.8333 2066.22 85.25 2062.72 85.25C2055.72 85.25 2050.24 87.35 2046.27 91.55C2042.54 95.5167 2040.67 101.7 2040.67 110.1V123.75L2042.42 151.4V297H1975.92ZM1948.27 164V114.3H2085.82V164H1948.27Z" fill="#151414"/>
<path d="M670.96 505.2C659.227 505.2 648.3 503.293 638.18 499.48C628.207 495.52 619.48 490.02 612 482.98C604.667 475.793 598.947 467.36 594.84 457.68C590.733 448 588.68 437.44 588.68 426C588.68 414.56 590.733 404 594.84 394.32C598.947 384.64 604.74 376.28 612.22 369.24C619.7 362.053 628.427 356.553 638.4 352.74C648.373 348.78 659.3 346.8 671.18 346.8C683.793 346.8 695.307 349 705.72 353.4C716.133 357.653 724.933 364.033 732.12 372.54L713.64 389.92C708.067 383.907 701.833 379.433 694.94 376.5C688.047 373.42 680.567 371.88 672.5 371.88C664.433 371.88 657.027 373.2 650.28 375.84C643.68 378.48 637.887 382.22 632.9 387.06C628.06 391.9 624.247 397.62 621.46 404.22C618.82 410.82 617.5 418.08 617.5 426C617.5 433.92 618.82 441.18 621.46 447.78C624.247 454.38 628.06 460.1 632.9 464.94C637.887 469.78 643.68 473.52 650.28 476.16C657.027 478.8 664.433 480.12 672.5 480.12C680.567 480.12 688.047 478.653 694.94 475.72C701.833 472.64 708.067 468.02 713.64 461.86L732.12 479.46C724.933 487.82 716.133 494.2 705.72 498.6C695.307 503 683.72 505.2 670.96 505.2ZM810.672 504.54C798.645 504.54 787.939 501.973 778.552 496.84C769.165 491.56 761.759 484.373 756.332 475.28C750.905 466.187 748.192 455.847 748.192 444.26C748.192 432.527 750.905 422.187 756.332 413.24C761.759 404.147 769.165 397.033 778.552 391.9C787.939 386.767 798.645 384.2 810.672 384.2C822.845 384.2 833.625 386.767 843.012 391.9C852.545 397.033 859.952 404.073 865.232 413.02C870.659 421.967 873.372 432.38 873.372 444.26C873.372 455.847 870.659 466.187 865.232 475.28C859.952 484.373 852.545 491.56 843.012 496.84C833.625 501.973 822.845 504.54 810.672 504.54ZM810.672 481C817.419 481 823.432 479.533 828.712 476.6C833.992 473.667 838.099 469.413 841.032 463.84C844.112 458.267 845.652 451.74 845.652 444.26C845.652 436.633 844.112 430.107 841.032 424.68C838.099 419.107 833.992 414.853 828.712 411.92C823.432 408.987 817.492 407.52 810.892 407.52C804.145 407.52 798.132 408.987 792.852 411.92C787.719 414.853 783.612 419.107 780.532 424.68C777.452 430.107 775.912 436.633 775.912 444.26C775.912 451.74 777.452 458.267 780.532 463.84C783.612 469.413 787.719 473.667 792.852 476.6C798.132 479.533 804.072 481 810.672 481ZM971.829 384.2C981.216 384.2 989.576 386.033 996.909 389.7C1004.39 393.367 1010.26 399.013 1014.51 406.64C1018.76 414.12 1020.89 423.8 1020.89 435.68V503H993.389V439.2C993.389 428.787 990.896 421.013 985.909 415.88C981.069 410.747 974.249 408.18 965.449 408.18C958.996 408.18 953.276 409.5 948.289 412.14C943.302 414.78 939.416 418.74 936.629 424.02C933.989 429.153 932.669 435.68 932.669 443.6V503H905.169V385.52H931.349V417.2L926.729 407.52C930.836 400.04 936.776 394.32 944.549 390.36C952.469 386.253 961.562 384.2 971.829 384.2ZM1127.93 384.2C1137.32 384.2 1145.68 386.033 1153.01 389.7C1160.49 393.367 1166.36 399.013 1170.61 406.64C1174.87 414.12 1176.99 423.8 1176.99 435.68V503H1149.49V439.2C1149.49 428.787 1147 421.013 1142.01 415.88C1137.17 410.747 1130.35 408.18 1121.55 408.18C1115.1 408.18 1109.38 409.5 1104.39 412.14C1099.41 414.78 1095.52 418.74 1092.73 424.02C1090.09 429.153 1088.77 435.68 1088.77 443.6V503H1061.27V385.52H1087.45V417.2L1082.83 407.52C1086.94 400.04 1092.88 394.32 1100.65 390.36C1108.57 386.253 1117.67 384.2 1127.93 384.2ZM1272.81 504.54C1259.76 504.54 1248.32 501.973 1238.49 496.84C1228.81 491.56 1221.26 484.373 1215.83 475.28C1210.55 466.187 1207.91 455.847 1207.91 444.26C1207.91 432.527 1210.48 422.187 1215.61 413.24C1220.89 404.147 1228.08 397.033 1237.17 391.9C1246.41 386.767 1256.9 384.2 1268.63 384.2C1280.07 384.2 1290.27 386.693 1299.21 391.68C1308.16 396.667 1315.2 403.707 1320.33 412.8C1325.47 421.893 1328.03 432.6 1328.03 444.92C1328.03 446.093 1327.96 447.413 1327.81 448.88C1327.81 450.347 1327.74 451.74 1327.59 453.06H1229.69V434.8H1313.07L1302.29 440.52C1302.44 433.773 1301.05 427.833 1298.11 422.7C1295.18 417.567 1291.15 413.533 1286.01 410.6C1281.03 407.667 1275.23 406.2 1268.63 406.2C1261.89 406.2 1255.95 407.667 1250.81 410.6C1245.83 413.533 1241.87 417.64 1238.93 422.92C1236.15 428.053 1234.75 434.14 1234.75 441.18V445.58C1234.75 452.62 1236.37 458.853 1239.59 464.28C1242.82 469.707 1247.37 473.887 1253.23 476.82C1259.1 479.753 1265.85 481.22 1273.47 481.22C1280.07 481.22 1286.01 480.193 1291.29 478.14C1296.57 476.087 1301.27 472.86 1305.37 468.46L1320.11 485.4C1314.83 491.56 1308.16 496.327 1300.09 499.7C1292.17 502.927 1283.08 504.54 1272.81 504.54ZM1413.85 504.54C1401.53 504.54 1390.53 501.973 1380.85 496.84C1371.32 491.56 1363.84 484.373 1358.41 475.28C1352.98 466.187 1350.27 455.847 1350.27 444.26C1350.27 432.527 1352.98 422.187 1358.41 413.24C1363.84 404.147 1371.32 397.033 1380.85 391.9C1390.53 386.767 1401.53 384.2 1413.85 384.2C1425.29 384.2 1435.34 386.547 1443.99 391.24C1452.79 395.787 1459.46 402.533 1464.01 411.48L1442.89 423.8C1439.37 418.227 1435.04 414.12 1429.91 411.48C1424.92 408.84 1419.5 407.52 1413.63 407.52C1406.88 407.52 1400.8 408.987 1395.37 411.92C1389.94 414.853 1385.69 419.107 1382.61 424.68C1379.53 430.107 1377.99 436.633 1377.99 444.26C1377.99 451.887 1379.53 458.487 1382.61 464.06C1385.69 469.487 1389.94 473.667 1395.37 476.6C1400.8 479.533 1406.88 481 1413.63 481C1419.5 481 1424.92 479.68 1429.91 477.04C1435.04 474.4 1439.37 470.293 1442.89 464.72L1464.01 477.04C1459.46 485.84 1452.79 492.66 1443.99 497.5C1435.34 502.193 1425.29 504.54 1413.85 504.54ZM1539.01 504.54C1526.1 504.54 1516.13 501.24 1509.09 494.64C1502.05 487.893 1498.53 477.993 1498.53 464.94V359.56H1526.03V464.28C1526.03 469.853 1527.42 474.18 1530.21 477.26C1533.14 480.34 1537.17 481.88 1542.31 481.88C1548.47 481.88 1553.6 480.267 1557.71 477.04L1565.41 496.62C1562.18 499.26 1558.22 501.24 1553.53 502.56C1548.83 503.88 1543.99 504.54 1539.01 504.54ZM1479.17 408.4V386.4H1557.49V408.4H1479.17ZM1593.53 503V385.52H1621.03V503H1593.53ZM1607.39 366.16C1602.25 366.16 1598 364.547 1594.63 361.32C1591.4 358.093 1589.79 354.207 1589.79 349.66C1589.79 344.967 1591.4 341.08 1594.63 338C1598 334.773 1602.25 333.16 1607.39 333.16C1612.52 333.16 1616.7 334.7 1619.93 337.78C1623.3 340.713 1624.99 344.453 1624.99 349C1624.99 353.84 1623.37 357.947 1620.15 361.32C1616.92 364.547 1612.67 366.16 1607.39 366.16ZM1715.42 504.54C1703.4 504.54 1692.69 501.973 1683.3 496.84C1673.92 491.56 1666.51 484.373 1661.08 475.28C1655.66 466.187 1652.94 455.847 1652.94 444.26C1652.94 432.527 1655.66 422.187 1661.08 413.24C1666.51 404.147 1673.92 397.033 1683.3 391.9C1692.69 386.767 1703.4 384.2 1715.42 384.2C1727.6 384.2 1738.38 386.767 1747.76 391.9C1757.3 397.033 1764.7 404.073 1769.98 413.02C1775.41 421.967 1778.12 432.38 1778.12 444.26C1778.12 455.847 1775.41 466.187 1769.98 475.28C1764.7 484.373 1757.3 491.56 1747.76 496.84C1738.38 501.973 1727.6 504.54 1715.42 504.54ZM1715.42 481C1722.17 481 1728.18 479.533 1733.46 476.6C1738.74 473.667 1742.85 469.413 1745.78 463.84C1748.86 458.267 1750.4 451.74 1750.4 444.26C1750.4 436.633 1748.86 430.107 1745.78 424.68C1742.85 419.107 1738.74 414.853 1733.46 411.92C1728.18 408.987 1722.24 407.52 1715.64 407.52C1708.9 407.52 1702.88 408.987 1697.6 411.92C1692.47 414.853 1688.36 419.107 1685.28 424.68C1682.2 430.107 1680.66 436.633 1680.66 444.26C1680.66 451.74 1682.2 458.267 1685.28 463.84C1688.36 469.413 1692.47 473.667 1697.6 476.6C1702.88 479.533 1708.82 481 1715.42 481ZM1876.58 384.2C1885.97 384.2 1894.33 386.033 1901.66 389.7C1909.14 393.367 1915.01 399.013 1919.26 406.64C1923.51 414.12 1925.64 423.8 1925.64 435.68V503H1898.14V439.2C1898.14 428.787 1895.65 421.013 1890.66 415.88C1885.82 410.747 1879 408.18 1870.2 408.18C1863.75 408.18 1858.03 409.5 1853.04 412.14C1848.05 414.78 1844.17 418.74 1841.38 424.02C1838.74 429.153 1837.42 435.68 1837.42 443.6V503H1809.92V385.52H1836.1V417.2L1831.48 407.52C1835.59 400.04 1841.53 394.32 1849.3 390.36C1857.22 386.253 1866.31 384.2 1876.58 384.2ZM2002.32 504.54C1992.5 504.54 1983.04 503.293 1973.94 500.8C1965 498.16 1957.88 495.007 1952.6 491.34L1963.16 470.44C1968.44 473.813 1974.75 476.6 1982.08 478.8C1989.42 481 1996.75 482.1 2004.08 482.1C2012.74 482.1 2018.97 480.927 2022.78 478.58C2026.74 476.233 2028.72 473.08 2028.72 469.12C2028.72 465.893 2027.4 463.473 2024.76 461.86C2022.12 460.1 2018.68 458.78 2014.42 457.9C2010.17 457.02 2005.4 456.213 2000.12 455.48C1994.99 454.747 1989.78 453.793 1984.5 452.62C1979.37 451.3 1974.68 449.467 1970.42 447.12C1966.17 444.627 1962.72 441.327 1960.08 437.22C1957.44 433.113 1956.12 427.687 1956.12 420.94C1956.12 413.46 1958.25 407.007 1962.5 401.58C1966.76 396.007 1972.7 391.753 1980.32 388.82C1988.1 385.74 1997.26 384.2 2007.82 384.2C2015.74 384.2 2023.74 385.08 2031.8 386.84C2039.87 388.6 2046.54 391.093 2051.82 394.32L2041.26 415.22C2035.69 411.847 2030.04 409.573 2024.32 408.4C2018.75 407.08 2013.18 406.42 2007.6 406.42C1999.24 406.42 1993.01 407.667 1988.9 410.16C1984.94 412.653 1982.96 415.807 1982.96 419.62C1982.96 423.14 1984.28 425.78 1986.92 427.54C1989.56 429.3 1993.01 430.693 1997.26 431.72C2001.52 432.747 2006.21 433.627 2011.34 434.36C2016.62 434.947 2021.83 435.9 2026.96 437.22C2032.1 438.54 2036.79 440.373 2041.04 442.72C2045.44 444.92 2048.96 448.073 2051.6 452.18C2054.24 456.287 2055.56 461.64 2055.56 468.24C2055.56 475.573 2053.36 481.953 2048.96 487.38C2044.71 492.807 2038.62 497.06 2030.7 500.14C2022.78 503.073 2013.32 504.54 2002.32 504.54Z" fill="#555454"/>
<rect width="530" height="530" rx="57" fill="url(#paint0_linear_1_165)"/>
<circle cx="265" cy="265" r="184" stroke="#151414" stroke-width="28"/>
<path d="M200 265L232.5 208.708L297.5 208.708L330 265L297.5 321.292L232.5 321.292L200 265Z" stroke="#151414" stroke-width="26"/>
<path d="M298 321L330.5 264.708L395.5 264.708L428 321L395.5 377.292L330.5 377.292L298 321Z" stroke="#151414" stroke-width="26"/>
<path d="M102 209L134.5 152.708L199.5 152.708L232 209L199.5 265.292L134.5 265.292L102 209Z" stroke="#151414" stroke-width="26"/>
<path d="M232.5 321.292L200 265L232.5 208.708L297.5 208.708L330 265L297.5 321.292L232.5 321.292Z" fill="#151414" stroke="#151414" stroke-width="26"/>
<path d="M232.291 434.083L199.791 377.792L232.291 321.5L297.291 321.5L329.791 377.792L297.291 434.083L232.291 434.083Z" stroke="#151414" stroke-width="26"/>
<path d="M232.291 212.083L199.791 155.792L232.291 99.4999L297.291 99.4999L329.791 155.792L297.291 212.083L232.291 212.083Z" stroke="#151414" stroke-width="26"/>
<path d="M329.997 264.421L297.497 208.129L329.997 151.838L394.997 151.838L427.497 208.129L394.997 264.421L329.997 264.421Z" stroke="#151414" stroke-width="26"/>
<path d="M135.002 378.162L102.502 321.87L135.002 265.579L200.002 265.579L232.502 321.87L200.002 378.162L135.002 378.162Z" stroke="#151414" stroke-width="26"/>
<path d="M79 33V127" stroke="#151414" stroke-width="26"/>
<path d="M32 80L126 80" stroke="#151414" stroke-width="26"/>
<defs>
<linearGradient id="paint0_linear_1_165" x1="-207.182" y1="703.455" x2="693.818" y2="-1.39364e-05" gradientUnits="userSpaceOnUse">
<stop offset="0.078125" stop-color="#3E00A4"/>
<stop offset="0.383104" stop-color="#6100FF"/>
<stop offset="0.650534" stop-color="#CF47FF"/>
<stop offset="0.973958" stop-color="#E8A6FF"/>
</linearGradient>
</defs>
</svg>
