<svg width="1521" height="491" viewBox="0 0 1521 491" fill="none" xmlns="http://www.w3.org/2000/svg">
<path d="M86.45 227.75L82.6 150.05L187.95 37H264.25L159.25 150.75L120.75 191L86.45 227.75ZM24.5 282V37H93.1V282H24.5ZM189 282L109.2 180.85L154.35 132.55L269.5 282H189ZM284.534 282V92.3H351.034V282H284.534ZM317.784 71.3C305.65 71.3 295.85 67.9166 288.384 61.15C280.917 54.3833 277.184 45.9833 277.184 35.95C277.184 25.9167 280.917 17.5167 288.384 10.75C295.85 3.98332 305.65 0.599993 317.784 0.599993C329.917 0.599993 339.717 3.86666 347.184 10.4C354.65 16.7 358.384 24.8667 358.384 34.9C358.384 45.4 354.65 54.15 347.184 61.15C339.95 67.9166 330.15 71.3 317.784 71.3ZM491.2 285.15C470.2 285.15 451.417 280.95 434.85 272.55C418.517 264.15 405.684 252.6 396.35 237.9C387.017 222.967 382.35 205.933 382.35 186.8C382.35 167.667 387.017 150.75 396.35 136.05C405.684 121.35 418.517 109.917 434.85 101.75C451.417 93.35 470.2 89.15 491.2 89.15C512.667 89.15 531.217 93.7 546.85 102.8C562.484 111.9 573.567 124.733 580.1 141.3L528.65 167.55C524.217 158.683 518.734 152.267 512.2 148.3C505.667 144.1 498.55 142 490.85 142C483.15 142 476.15 143.75 469.85 147.25C463.55 150.75 458.534 155.883 454.8 162.65C451.3 169.183 449.55 177.233 449.55 186.8C449.55 196.6 451.3 204.883 454.8 211.65C458.534 218.417 463.55 223.55 469.85 227.05C476.15 230.55 483.15 232.3 490.85 232.3C498.55 232.3 505.667 230.317 512.2 226.35C518.734 222.15 524.217 215.617 528.65 206.75L580.1 233C573.567 249.567 562.484 262.4 546.85 271.5C531.217 280.6 512.667 285.15 491.2 285.15ZM659.755 247L661.505 167.55L738.855 92.3H817.605L731.855 180.85L697.905 208.15L659.755 247ZM604.455 282V22.3H670.955V282H604.455ZM743.755 282L685.655 209.2L726.955 158.1L824.255 282H743.755ZM1072.95 286.9C1053.35 286.9 1035.27 283.75 1018.7 277.45C1002.14 271.15 987.669 262.283 975.302 250.85C963.169 239.183 953.719 225.65 946.952 210.25C940.186 194.85 936.802 177.933 936.802 159.5C936.802 141.067 940.186 124.15 946.952 108.75C953.719 93.35 963.169 79.9333 975.302 68.5C987.669 56.8333 1002.14 47.85 1018.7 41.55C1035.27 35.25 1053.35 32.1 1072.95 32.1C1092.79 32.1 1110.87 35.25 1127.2 41.55C1143.77 47.85 1158.12 56.8333 1170.25 68.5C1182.39 79.9333 1191.84 93.35 1198.6 108.75C1205.6 124.15 1209.1 141.067 1209.1 159.5C1209.1 177.933 1205.6 194.967 1198.6 210.6C1191.84 226 1182.39 239.417 1170.25 250.85C1158.12 262.283 1143.77 271.15 1127.2 277.45C1110.87 283.75 1092.79 286.9 1072.95 286.9ZM1072.95 229.5C1082.29 229.5 1090.92 227.867 1098.85 224.6C1107.02 221.333 1114.02 216.667 1119.85 210.6C1125.92 204.3 1130.59 196.833 1133.85 188.2C1137.35 179.567 1139.1 170 1139.1 159.5C1139.1 148.767 1137.35 139.2 1133.85 130.8C1130.59 122.167 1125.92 114.817 1119.85 108.75C1114.02 102.45 1107.02 97.6667 1098.85 94.4C1090.92 91.1333 1082.29 89.5 1072.95 89.5C1063.62 89.5 1054.87 91.1333 1046.7 94.4C1038.77 97.6667 1031.77 102.45 1025.7 108.75C1019.87 114.817 1015.2 122.167 1011.7 130.8C1008.44 139.2 1006.8 148.767 1006.8 159.5C1006.8 170 1008.44 179.567 1011.7 188.2C1015.2 196.833 1019.87 204.3 1025.7 210.6C1031.77 216.667 1038.77 221.333 1046.7 224.6C1054.87 227.867 1063.62 229.5 1072.95 229.5ZM1249.95 282V94.4C1249.95 71.5333 1256.72 53.3333 1270.25 39.8C1284.02 26.0333 1303.62 19.15 1329.05 19.15C1337.22 19.15 1345.27 19.9667 1353.2 21.6C1361.13 23.2333 1367.78 25.6833 1373.15 28.95L1356.7 75.85C1353.9 74.2167 1350.75 72.9333 1347.25 72C1343.75 70.8333 1340.25 70.25 1336.75 70.25C1329.75 70.25 1324.27 72.35 1320.3 76.55C1316.57 80.5167 1314.7 86.7 1314.7 95.1V108.75L1316.45 136.4V282H1249.95ZM1222.3 149V99.3H1359.85V149H1222.3ZM1396.92 282V94.4C1396.92 71.5333 1403.69 53.3333 1417.22 39.8C1430.99 26.0333 1450.59 19.15 1476.02 19.15C1484.19 19.15 1492.24 19.9667 1500.17 21.6C1508.1 23.2333 1514.75 25.6833 1520.12 28.95L1503.67 75.85C1500.87 74.2167 1497.72 72.9333 1494.22 72C1490.72 70.8333 1487.22 70.25 1483.72 70.25C1476.72 70.25 1471.24 72.35 1467.27 76.55C1463.54 80.5167 1461.67 86.7 1461.67 95.1V108.75L1463.42 136.4V282H1396.92ZM1369.27 149V99.3H1506.82V149H1369.27Z" fill="#151414"/>
<path d="M91.96 490.2C80.2267 490.2 69.3 488.293 59.18 484.48C49.2067 480.52 40.48 475.02 33 467.98C25.6667 460.793 19.9467 452.36 15.84 442.68C11.7333 433 9.68 422.44 9.68 411C9.68 399.56 11.7333 389 15.84 379.32C19.9467 369.64 25.74 361.28 33.22 354.24C40.7 347.053 49.4267 341.553 59.4 337.74C69.3733 333.78 80.3 331.8 92.18 331.8C104.793 331.8 116.307 334 126.72 338.4C137.133 342.653 145.933 349.033 153.12 357.54L134.64 374.92C129.067 368.907 122.833 364.433 115.94 361.5C109.047 358.42 101.567 356.88 93.5 356.88C85.4333 356.88 78.0267 358.2 71.28 360.84C64.68 363.48 58.8867 367.22 53.9 372.06C49.06 376.9 45.2467 382.62 42.46 389.22C39.82 395.82 38.5 403.08 38.5 411C38.5 418.92 39.82 426.18 42.46 432.78C45.2467 439.38 49.06 445.1 53.9 449.94C58.8867 454.78 64.68 458.52 71.28 461.16C78.0267 463.8 85.4333 465.12 93.5 465.12C101.567 465.12 109.047 463.653 115.94 460.72C122.833 457.64 129.067 453.02 134.64 446.86L153.12 464.46C145.933 472.82 137.133 479.2 126.72 483.6C116.307 488 104.72 490.2 91.96 490.2ZM231.672 489.54C219.645 489.54 208.939 486.973 199.552 481.84C190.165 476.56 182.759 469.373 177.332 460.28C171.905 451.187 169.192 440.847 169.192 429.26C169.192 417.527 171.905 407.187 177.332 398.24C182.759 389.147 190.165 382.033 199.552 376.9C208.939 371.767 219.645 369.2 231.672 369.2C243.845 369.2 254.625 371.767 264.012 376.9C273.545 382.033 280.952 389.073 286.232 398.02C291.659 406.967 294.372 417.38 294.372 429.26C294.372 440.847 291.659 451.187 286.232 460.28C280.952 469.373 273.545 476.56 264.012 481.84C254.625 486.973 243.845 489.54 231.672 489.54ZM231.672 466C238.419 466 244.432 464.533 249.712 461.6C254.992 458.667 259.099 454.413 262.032 448.84C265.112 443.267 266.652 436.74 266.652 429.26C266.652 421.633 265.112 415.107 262.032 409.68C259.099 404.107 254.992 399.853 249.712 396.92C244.432 393.987 238.492 392.52 231.892 392.52C225.145 392.52 219.132 393.987 213.852 396.92C208.719 399.853 204.612 404.107 201.532 409.68C198.452 415.107 196.912 421.633 196.912 429.26C196.912 436.74 198.452 443.267 201.532 448.84C204.612 454.413 208.719 458.667 213.852 461.6C219.132 464.533 225.072 466 231.672 466ZM392.829 369.2C402.216 369.2 410.576 371.033 417.909 374.7C425.389 378.367 431.256 384.013 435.509 391.64C439.762 399.12 441.889 408.8 441.889 420.68V488H414.389V424.2C414.389 413.787 411.896 406.013 406.909 400.88C402.069 395.747 395.249 393.18 386.449 393.18C379.996 393.18 374.276 394.5 369.289 397.14C364.302 399.78 360.416 403.74 357.629 409.02C354.989 414.153 353.669 420.68 353.669 428.6V488H326.169V370.52H352.349V402.2L347.729 392.52C351.836 385.04 357.776 379.32 365.549 375.36C373.469 371.253 382.562 369.2 392.829 369.2ZM548.934 369.2C558.321 369.2 566.681 371.033 574.014 374.7C581.494 378.367 587.361 384.013 591.614 391.64C595.868 399.12 597.994 408.8 597.994 420.68V488H570.494V424.2C570.494 413.787 568.001 406.013 563.014 400.88C558.174 395.747 551.354 393.18 542.554 393.18C536.101 393.18 530.381 394.5 525.394 397.14C520.408 399.78 516.521 403.74 513.734 409.02C511.094 414.153 509.774 420.68 509.774 428.6V488H482.274V370.52H508.454V402.2L503.834 392.52C507.941 385.04 513.881 379.32 521.654 375.36C529.574 371.253 538.668 369.2 548.934 369.2ZM693.815 489.54C680.761 489.54 669.321 486.973 659.495 481.84C649.815 476.56 642.261 469.373 636.835 460.28C631.555 451.187 628.915 440.847 628.915 429.26C628.915 417.527 631.481 407.187 636.615 398.24C641.895 389.147 649.081 382.033 658.175 376.9C667.415 371.767 677.901 369.2 689.635 369.2C701.075 369.2 711.268 371.693 720.215 376.68C729.161 381.667 736.201 388.707 741.335 397.8C746.468 406.893 749.035 417.6 749.035 429.92C749.035 431.093 748.961 432.413 748.815 433.88C748.815 435.347 748.741 436.74 748.595 438.06H650.695V419.8H734.075L723.295 425.52C723.441 418.773 722.048 412.833 719.115 407.7C716.181 402.567 712.148 398.533 707.015 395.6C702.028 392.667 696.235 391.2 689.635 391.2C682.888 391.2 676.948 392.667 671.815 395.6C666.828 398.533 662.868 402.64 659.935 407.92C657.148 413.053 655.755 419.14 655.755 426.18V430.58C655.755 437.62 657.368 443.853 660.595 449.28C663.821 454.707 668.368 458.887 674.235 461.82C680.101 464.753 686.848 466.22 694.475 466.22C701.075 466.22 707.015 465.193 712.295 463.14C717.575 461.087 722.268 457.86 726.375 453.46L741.115 470.4C735.835 476.56 729.161 481.327 721.095 484.7C713.175 487.927 704.081 489.54 693.815 489.54ZM834.85 489.54C822.53 489.54 811.53 486.973 801.85 481.84C792.317 476.56 784.837 469.373 779.41 460.28C773.983 451.187 771.27 440.847 771.27 429.26C771.27 417.527 773.983 407.187 779.41 398.24C784.837 389.147 792.317 382.033 801.85 376.9C811.53 371.767 822.53 369.2 834.85 369.2C846.29 369.2 856.337 371.547 864.99 376.24C873.79 380.787 880.463 387.533 885.01 396.48L863.89 408.8C860.37 403.227 856.043 399.12 850.91 396.48C845.923 393.84 840.497 392.52 834.63 392.52C827.883 392.52 821.797 393.987 816.37 396.92C810.943 399.853 806.69 404.107 803.61 409.68C800.53 415.107 798.99 421.633 798.99 429.26C798.99 436.887 800.53 443.487 803.61 449.06C806.69 454.487 810.943 458.667 816.37 461.6C821.797 464.533 827.883 466 834.63 466C840.497 466 845.923 464.68 850.91 462.04C856.043 459.4 860.37 455.293 863.89 449.72L885.01 462.04C880.463 470.84 873.79 477.66 864.99 482.5C856.337 487.193 846.29 489.54 834.85 489.54ZM960.006 489.54C947.099 489.54 937.126 486.24 930.086 479.64C923.046 472.893 919.526 462.993 919.526 449.94V344.56H947.026V449.28C947.026 454.853 948.419 459.18 951.206 462.26C954.139 465.34 958.173 466.88 963.306 466.88C969.466 466.88 974.599 465.267 978.706 462.04L986.406 481.62C983.179 484.26 979.219 486.24 974.526 487.56C969.833 488.88 964.993 489.54 960.006 489.54ZM900.166 393.4V371.4H978.486V393.4H900.166ZM1014.53 488V370.52H1042.03V488H1014.53ZM1028.39 351.16C1023.25 351.16 1019 349.547 1015.63 346.32C1012.4 343.093 1010.79 339.207 1010.79 334.66C1010.79 329.967 1012.4 326.08 1015.63 323C1019 319.773 1023.25 318.16 1028.39 318.16C1033.52 318.16 1037.7 319.7 1040.93 322.78C1044.3 325.713 1045.99 329.453 1045.99 334C1045.99 338.84 1044.37 342.947 1041.15 346.32C1037.92 349.547 1033.67 351.16 1028.39 351.16ZM1136.42 489.54C1124.4 489.54 1113.69 486.973 1104.3 481.84C1094.92 476.56 1087.51 469.373 1082.08 460.28C1076.66 451.187 1073.94 440.847 1073.94 429.26C1073.94 417.527 1076.66 407.187 1082.08 398.24C1087.51 389.147 1094.92 382.033 1104.3 376.9C1113.69 371.767 1124.4 369.2 1136.42 369.2C1148.6 369.2 1159.38 371.767 1168.76 376.9C1178.3 382.033 1185.7 389.073 1190.98 398.02C1196.41 406.967 1199.12 417.38 1199.12 429.26C1199.12 440.847 1196.41 451.187 1190.98 460.28C1185.7 469.373 1178.3 476.56 1168.76 481.84C1159.38 486.973 1148.6 489.54 1136.42 489.54ZM1136.42 466C1143.17 466 1149.18 464.533 1154.46 461.6C1159.74 458.667 1163.85 454.413 1166.78 448.84C1169.86 443.267 1171.4 436.74 1171.4 429.26C1171.4 421.633 1169.86 415.107 1166.78 409.68C1163.85 404.107 1159.74 399.853 1154.46 396.92C1149.18 393.987 1143.24 392.52 1136.64 392.52C1129.9 392.52 1123.88 393.987 1118.6 396.92C1113.47 399.853 1109.36 404.107 1106.28 409.68C1103.2 415.107 1101.66 421.633 1101.66 429.26C1101.66 436.74 1103.2 443.267 1106.28 448.84C1109.36 454.413 1113.47 458.667 1118.6 461.6C1123.88 464.533 1129.82 466 1136.42 466ZM1297.58 369.2C1306.97 369.2 1315.33 371.033 1322.66 374.7C1330.14 378.367 1336.01 384.013 1340.26 391.64C1344.51 399.12 1346.64 408.8 1346.64 420.68V488H1319.14V424.2C1319.14 413.787 1316.65 406.013 1311.66 400.88C1306.82 395.747 1300 393.18 1291.2 393.18C1284.75 393.18 1279.03 394.5 1274.04 397.14C1269.05 399.78 1265.17 403.74 1262.38 409.02C1259.74 414.153 1258.42 420.68 1258.42 428.6V488H1230.92V370.52H1257.1V402.2L1252.48 392.52C1256.59 385.04 1262.53 379.32 1270.3 375.36C1278.22 371.253 1287.31 369.2 1297.58 369.2ZM1423.32 489.54C1413.5 489.54 1404.04 488.293 1394.94 485.8C1386 483.16 1378.88 480.007 1373.6 476.34L1384.16 455.44C1389.44 458.813 1395.75 461.6 1403.08 463.8C1410.42 466 1417.75 467.1 1425.08 467.1C1433.74 467.1 1439.97 465.927 1443.78 463.58C1447.74 461.233 1449.72 458.08 1449.72 454.12C1449.72 450.893 1448.4 448.473 1445.76 446.86C1443.12 445.1 1439.68 443.78 1435.42 442.9C1431.17 442.02 1426.4 441.213 1421.12 440.48C1415.99 439.747 1410.78 438.793 1405.5 437.62C1400.37 436.3 1395.68 434.467 1391.42 432.12C1387.17 429.627 1383.72 426.327 1381.08 422.22C1378.44 418.113 1377.12 412.687 1377.12 405.94C1377.12 398.46 1379.25 392.007 1383.5 386.58C1387.76 381.007 1393.7 376.753 1401.32 373.82C1409.1 370.74 1418.26 369.2 1428.82 369.2C1436.74 369.2 1444.74 370.08 1452.8 371.84C1460.87 373.6 1467.54 376.093 1472.82 379.32L1462.26 400.22C1456.69 396.847 1451.04 394.573 1445.32 393.4C1439.75 392.08 1434.18 391.42 1428.6 391.42C1420.24 391.42 1414.01 392.667 1409.9 395.16C1405.94 397.653 1403.96 400.807 1403.96 404.62C1403.96 408.14 1405.28 410.78 1407.92 412.54C1410.56 414.3 1414.01 415.693 1418.26 416.72C1422.52 417.747 1427.21 418.627 1432.34 419.36C1437.62 419.947 1442.83 420.9 1447.96 422.22C1453.1 423.54 1457.79 425.373 1462.04 427.72C1466.44 429.92 1469.96 433.073 1472.6 437.18C1475.24 441.287 1476.56 446.64 1476.56 453.24C1476.56 460.573 1474.36 466.953 1469.96 472.38C1465.71 477.807 1459.62 482.06 1451.7 485.14C1443.78 488.073 1434.32 489.54 1423.32 489.54Z" fill="#555454"/>
</svg>
